<?xml version="1.0" standalone="no"?>
<!DOCTYPE svg PUBLIC "-//W3C//DTD SVG 20010904//EN"
 "http://www.w3.org/TR/2001/REC-SVG-20010904/DTD/svg10.dtd">
<svg version="1.0" xmlns="http://www.w3.org/2000/svg"
 width="512.000000pt" height="512.000000pt" viewBox="0 0 512.000000 512.000000"
 preserveAspectRatio="xMidYMid meet">
<metadata>
Created by potrace 1.14, written by Peter Selinger 2001-2017
</metadata>
<g transform="translate(0.000000,512.000000) scale(0.100000,-0.100000)"
fill="#000000" stroke="none">
<path d="M3493 5106 c-90 -29 -148 -80 -187 -166 -53 -115 -17 -268 80 -340
38 -28 38 -33 4 -168 -20 -81 -63 -263 -76 -322 -4 -19 -9 -39 -10 -45 -1 -5
-14 -59 -29 -120 -39 -160 -64 -267 -69 -295 -3 -14 -13 -54 -21 -90 -8 -36
-29 -121 -45 -190 -16 -69 -43 -183 -60 -255 -17 -71 -33 -142 -36 -156 -2
-14 -13 -60 -23 -102 l-18 -77 36 -5 c20 -3 58 -12 84 -21 27 -8 50 -14 52
-12 3 4 64 247 71 284 3 16 20 92 39 169 19 77 37 155 40 174 3 19 8 37 10 41
2 4 7 20 9 36 3 16 8 38 11 49 19 83 27 115 37 150 6 22 13 47 14 55 3 17 16
80 20 95 1 6 14 60 28 120 53 222 57 240 61 256 2 8 10 44 19 80 8 35 18 76
21 92 11 58 16 81 20 87 5 7 17 68 18 87 0 7 22 17 49 22 120 26 209 130 225
261 13 111 -64 243 -170 290 -60 26 -150 34 -204 16z"/>
<path d="M1237 3849 c-237 -53 -310 -360 -123 -514 81 -66 184 -83 289 -48
l58 20 33 -26 c18 -14 40 -33 49 -41 9 -8 22 -20 29 -25 23 -18 133 -110 138
-115 3 -3 28 -24 55 -45 28 -22 55 -45 60 -51 6 -6 35 -30 65 -55 30 -24 57
-46 60 -49 3 -3 43 -37 90 -75 47 -38 87 -72 90 -75 3 -3 32 -27 65 -55 33
-27 62 -53 63 -57 2 -5 7 -8 12 -8 5 0 26 -15 47 -34 123 -110 122 -110 146
-72 9 13 22 30 29 38 66 71 63 67 42 86 -10 9 -100 85 -199 167 -173 144 -189
157 -217 181 -73 59 -155 129 -163 138 -5 7 -19 18 -31 26 -22 16 -109 88
-128 106 -6 6 -49 42 -96 80 -136 110 -130 103 -119 130 11 32 14 110 4 154
-32 149 -196 252 -348 219z"/>
<path d="M4262 3302 c-122 -40 -204 -155 -207 -292 l-3 -75 -205 -121 c-113
-66 -212 -125 -219 -131 -7 -6 -40 -25 -73 -42 -32 -18 -71 -41 -86 -52 -15
-10 -32 -19 -38 -19 -16 0 -14 -8 13 -43 13 -18 34 -53 46 -79 l21 -46 35 21
c20 12 43 27 52 32 9 6 45 27 78 48 34 20 66 37 72 37 6 0 12 3 14 8 3 8 352
216 380 227 10 4 29 -2 47 -14 52 -37 101 -52 170 -52 212 0 356 202 289 403
-53 155 -229 242 -386 190z"/>
<path d="M2870 2506 c-25 -7 -60 -20 -78 -30 -44 -23 -112 -85 -112 -102 0 -8
-4 -14 -9 -14 -15 0 -51 -106 -54 -158 -10 -146 88 -295 224 -341 68 -23 160
-22 234 2 63 21 143 94 181 166 26 49 29 64 29 150 0 83 -4 103 -26 147 -37
74 -83 119 -155 154 -76 36 -165 46 -234 26z"/>
<path d="M2370 1804 c-36 -30 -66 -59 -68 -64 -2 -6 -10 -10 -17 -10 -7 0 -15
-4 -17 -8 -1 -4 -55 -50 -118 -102 -63 -52 -120 -99 -126 -105 -6 -5 -33 -29
-60 -52 -27 -22 -101 -85 -165 -140 -64 -54 -125 -105 -135 -114 -11 -8 -55
-46 -100 -85 -44 -38 -99 -84 -121 -102 -22 -18 -57 -48 -79 -66 -75 -65 -201
-171 -243 -206 -23 -19 -56 -48 -74 -64 -18 -15 -52 -44 -77 -65 -25 -20 -51
-41 -58 -48 -9 -9 -23 -7 -59 9 -130 57 -296 -3 -369 -134 -25 -47 -29 -63
-28 -138 0 -69 4 -93 23 -130 72 -139 246 -201 383 -137 88 41 138 100 164
195 15 55 16 71 5 124 l-12 61 29 26 c28 25 67 58 162 136 25 21 47 41 48 46
2 5 10 9 18 9 8 0 14 4 14 8 0 4 62 59 137 122 76 63 144 122 153 130 9 8 37
33 64 55 59 49 73 61 256 216 80 68 165 140 189 159 23 19 55 46 70 60 33 30
58 51 177 151 119 98 113 93 159 134 22 19 43 35 48 35 18 0 3 29 -43 80 -28
30 -50 58 -50 62 0 16 -16 6 -80 -48z"/>
<path d="M3345 1724 c-22 -19 -52 -42 -67 -50 -26 -14 -37 -38 -20 -46 4 -1
27 -30 52 -63 25 -33 55 -71 67 -84 44 -49 47 -64 23 -117 -31 -67 -31 -170 0
-238 43 -95 139 -163 245 -172 55 -5 184 31 192 53 3 7 10 13 15 13 27 0 88
103 102 174 28 138 -50 276 -186 327 -49 18 -71 21 -131 16 l-72 -6 -84 110
c-46 60 -87 111 -90 113 -3 2 -24 -11 -46 -30z"/>
</g>
</svg>
